<svg height="528pt" viewBox="-16 -48 528 528" width="528pt" xmlns="http://www.w3.org/2000/svg"><path d="m46.957031 40.515625h-.035156c-5.535156.109375-9.96875 4.628906-9.976563 10.167969-.011718 5.542968 4.40625 10.074218 9.949219 10.207031h.027344c5.542969-.117187 9.972656-4.632813 9.984375-10.175781.007812-5.539063-4.410156-10.070313-9.949219-10.199219zm0 0"/><path d="m132.035156 40.777344h-.035156c-5.519531.140625-9.925781 4.652344-9.929688 10.175781-.007812 5.519531 4.378907 10.042969 9.898438 10.199219h.03125c5.519531-.140625 9.921875-4.652344 9.933594-10.167969.003906-5.523437-4.386719-10.046875-9.902344-10.207031zm0 0"/><path d="m0 389.277344c.0234375 22.769531 18.480469 41.222656 41.25 41.25h412.5c22.769531-.027344 41.226562-18.480469 41.25-41.25v-268.742188h-495zm185-133.808594h53.75v-53.75c0-4.828125 3.914062-8.75 8.75-8.75s8.75 3.921875 8.75 8.75v53.75h53.75c4.835938 0 8.75 3.921875 8.75 8.75 0 4.835938-3.914062 8.75-8.75 8.75h-53.75v53.75c0 4.835938-3.914062 8.75-8.75 8.75s-8.75-3.914062-8.75-8.75v-53.75h-53.75c-4.835938 0-8.75-3.914062-8.75-8.75 0-4.828125 3.914062-8.75 8.75-8.75zm0 0"/><path d="m453.75-2.082031h-412.5c-22.769531.023437-41.2265625 18.480469-41.25 41.25v63.867187h495v-63.867187c-.023438-22.769531-18.480469-41.226563-41.25-41.25zm-406.828125 80.476562h-.085937c-15.308594-.023437-27.699219-12.449219-27.6875-27.757812.011718-15.308594 12.421874-27.710938 27.730468-27.710938 15.3125 0 27.726563 12.402344 27.734375 27.710938.015625 15.308593-12.378906 27.734375-27.691406 27.757812zm112.769531-27.339843c-.0625 15.253906-12.441406 27.589843-27.691406 27.605468h-.085938c-15.113281-.269531-27.21875-12.613281-27.191406-27.730468.019532-15.113282 12.160156-27.417969 27.273438-27.640626h.09375c15.285156.0625 27.632812 12.488282 27.601562 27.773438zm85.078125.269531c-.046875 15.253906-12.425781 27.597656-27.683593 27.601562h-.085938c-15.222656-.121093-27.488281-12.507812-27.46875-27.734375.023438-15.222656 12.335938-27.570312 27.558594-27.644531h.082031c15.289063.0625 27.636719 12.488281 27.601563 27.777344zm0 0"/><path d="m217.113281 41.046875h-.035156c-5.578125.046875-10.082031 4.589844-10.089844 10.175781-.011719 5.582032 4.476563 10.132813 10.0625 10.203125h.035157c5.578124-.050781 10.082031-4.589843 10.09375-10.175781.007812-5.585938-4.480469-10.136719-10.066407-10.203125zm0 0"/></svg>