<svg xmlns="http://www.w3.org/2000/svg" width="18.554" height="18.55" viewBox="0 0 18.554 18.55"><defs><style>.a{fill:#252ce1;}</style></defs><path class="a" d="M9.273,7.316a4.756,4.756,0,1,0,4.756,4.756A4.749,4.749,0,0,0,9.273,7.316Zm0,7.848a3.092,3.092,0,1,1,3.092-3.092A3.1,3.1,0,0,1,9.273,15.164Zm6.06-8.043a1.109,1.109,0,1,1-1.109-1.109A1.107,1.107,0,0,1,15.333,7.122Zm3.15,1.126a5.49,5.49,0,0,0-1.5-3.887,5.526,5.526,0,0,0-3.887-1.5c-1.532-.087-6.122-.087-7.654,0A5.518,5.518,0,0,0,1.557,4.357a5.508,5.508,0,0,0-1.5,3.887c-.087,1.532-.087,6.122,0,7.654a5.49,5.49,0,0,0,1.5,3.887,5.533,5.533,0,0,0,3.887,1.5c1.532.087,6.122.087,7.654,0a5.49,5.49,0,0,0,3.887-1.5,5.526,5.526,0,0,0,1.5-3.887C18.57,14.365,18.57,9.779,18.483,8.248ZM16.5,17.54A3.13,3.13,0,0,1,14.741,19.3c-1.221.484-4.119.373-5.468.373S5.022,19.784,3.8,19.3A3.13,3.13,0,0,1,2.041,17.54c-.484-1.221-.373-4.119-.373-5.468S1.561,7.821,2.041,6.6A3.13,3.13,0,0,1,3.8,4.841c1.221-.484,4.119-.373,5.468-.373s4.251-.108,5.468.373A3.13,3.13,0,0,1,16.5,6.6c.484,1.221.373,4.119.373,5.468S16.988,16.323,16.5,17.54Z" transform="translate(0.007 -2.797)"/></svg>