<svg xmlns="http://www.w3.org/2000/svg" width="377.064" height="414.157" viewBox="0 0 377.064 414.157"><defs><style>.a{fill:#160f30;}.a,.b,.c,.d,.e,.f,.g,.h,.i,.j,.k,.l,.m{fill-rule:evenodd;}.b{fill:#dce8f3;}.c,.d{fill:#dce7f3;}.d,.m,.n{opacity:0.54;}.e{fill:#0b4d78;}.f{fill:#2d2925;}.g{fill:#522f2c;}.h{fill:#fff;}.i{fill:#a43639;}.j{fill:#ef845c;}.k{fill:#f5b090;}.l{fill:#ff714f;}.m,.n{fill:#fefefe;}</style></defs><g transform="translate(-146.522 -600.843)"><g transform="translate(-34.608 35.7)"><path class="a" d="M453.64,105.189h0a56.868,56.868,0,0,1,56.7,56.7v58.628h-113.4V161.891a56.868,56.868,0,0,1,56.7-56.7Zm-37.448,95.923h74.9V162.045a37.449,37.449,0,1,0-74.9,0Z" transform="translate(32.615 459.954)"/><path class="b" d="M396.5,149.652h125.7a9.122,9.122,0,0,1,9.09,9.1V281.684a9.116,9.116,0,0,1-9.09,9.09H396.5a9.116,9.116,0,0,1-9.092-9.09V158.75a9.123,9.123,0,0,1,9.092-9.1Z" transform="translate(26.913 486.547)"/><path class="c" d="M432.419,149.652h62.848a9.122,9.122,0,0,1,9.09,9.1V281.684a9.116,9.116,0,0,1-9.09,9.09H432.419Z" transform="translate(53.836 486.547)"/><path class="a" d="M444.355,205.385v18.138a6.416,6.416,0,0,1-6.416,6.415h0a6.415,6.415,0,0,1-6.415-6.415V205.385a14.749,14.749,0,0,1-8.332-13.175,14.908,14.908,0,0,1,14.3-14.848,14.749,14.749,0,0,1,6.864,28.023Z" transform="translate(48.317 503.117)"/><path class="d" d="M408.754,157.394A43.055,43.055,0,0,1,451.575,117.1a42.4,42.4,0,0,1,19.487,4.718c3.426,2.448,8.2-5.87,0-9.339a50.791,50.791,0,0,0-19.487-3.879,51.423,51.423,0,0,0-51.184,48.793c.358,3.871,8.281,3.864,8.363,0Z" transform="translate(34.68 461.995)"/></g><path class="e" d="M397.545,188.363h33v31.472h-6.7V208.366h-7.419v11.469h-5.922V208.366H403.1v11.469h-5.556Z" transform="translate(-7.734 554)"/><path class="f" d="M340.48,294.829c.231.54-11.743,2.288-11.743,2.288l-.265,14.771,36.723.241s-.352-6.061-4.631-8.92-17.233-2.606-17.233-2.606l-.364-2.616Z" transform="translate(-54.794 702.871)"/><path class="f" d="M291.246,294.816l.219,5.75s1.948-.35,5.138,1.584,3.134,6.37,2.813,8.04l-.318,1.671-23.272.055c-.825-4.091,3.906-15.649,3.344-15.43.583-.386,12.076-1.671,12.076-1.671Z" transform="translate(-129.207 702.853)"/><path class="a" d="M346.366,215.976c-1.8,4.511-26.471,104.888-26.471,104.888l-43.463,92.17,14.043.7,58.563-86.992,26.44-66.063s36.667,53.789,36.26,57.859-7.908,71.651-10.921,96.573l15.748-2.63c13.253-57.078,25.548-89.212,23.316-99.133-4.629-20.62-13.812-41.771-37.513-92.667-.88-1.88-4.619-4.125-5.531-6.083Z" transform="translate(-128.217 589.68)"/><path class="g" d="M305.63,215.5l-1.1,10.6a163.575,163.575,0,0,0,28.133.726c13.8-1.046,30.056-3.838,30.056-3.838l-1.034-10.029Z" transform="translate(-88.571 587.37)"/><path class="h" d="M320.812,191.541c.726-5.092,6.676-20.608,6.676-20.608,10.767,1.022,32.631,51.535,35.269,51.5s43.463-5.289,43.463-5.289l4.653,5.533c-20.4,9.9-52.712,26.317-59.609,16.563-7.29-10.316-30.452-47.7-30.452-47.7Z" transform="translate(-65.6 528.068)"/><path class="h" d="M297.727,179.294s-1.637,3.64-1.594,3.573c.111-.186,8.973,8.908,14.935,43.5s-4.289,51.909,5.861,55.682c6.589,1.4,49.9,1.309,59.334-1.946,6.08-2.1-5.28-98.178-13.957-107.229-15.75-6.194-40.252-3.508-64.58,6.423Z" transform="translate(-100.42 526.129)"/><path class="i" d="M313.8,175.092s3.443,12.185,4.993,36.3-1.893,77.91-1.893,77.91l8.436,9.974,9.282-10.854s-2.044-52.769-4.783-77.437-10.3-38.116-10.3-38.116Z" transform="translate(-75.499 530.804)"/><path class="e" d="M333.06,182.26H490.734A7.283,7.283,0,0,1,498,189.52h0a7.283,7.283,0,0,1-7.262,7.26H333.06Z" transform="translate(-60.819 548.976)"/><path class="j" d="M303.76,161.189s3.705,1.815,5.752,10.986S310.964,186,310.964,186s3.783,3.628,11.934,5.817,13.824-.3,13.824-3.5-11.064-24.152-11.064-24.152Z" transform="translate(-89.658 514.32)"/><path class="h" d="M322.4,175.562s-6.037,9.6-6.191,9.094-11.681-10.381-11.681-10.381l3.387-5.555Z" transform="translate(-88.571 524.946)"/><path class="e" d="M335.076,168.082a32.885,32.885,0,1,1-32.885,32.885,32.887,32.887,0,0,1,32.885-32.885Zm0,10.662a22.223,22.223,0,1,1-22.214,22.223,22.225,22.225,0,0,1,22.214-22.223Z" transform="translate(-86.231 537.304)"/><path class="k" d="M305.115,196.145c.583-.439,3.023-2.992,3.023-2.992s2.794-4.573,4.829-5.376,6.555.516,7.281.8.439,2.11.439,2.11,1.013,1.893.793,2.763a1.922,1.922,0,0,1-.649,1.164,4.1,4.1,0,0,1,.284,1.97,2.953,2.953,0,0,1-.726,1.528s.219,1.813-.284,2.474a8.648,8.648,0,0,1-1.871,1.43l-8.05.738Z" transform="translate(-87.747 551.477)"/><path class="l" d="M299.34,161.734s6.071,7.435,9.424,9.47,7.568,1.167,7.568,1.167l-10.251-12.715Z" transform="translate(-95.895 512.157)"/><path class="k" d="M340.355,187.671c-4.388,9.031-17.816,12.209-26.6,3.665S297.793,169.329,303.16,158.1s14.253-10.955,22.3-9.239c10.866,2.3,19.1,30.155,14.892,38.81Z" transform="translate(-93.116 495.679)"/><path class="l" d="M313.71,187.854c.583-.219,1.584,1.176,2.652.473s2.8-3.607,1.936-7.389a24.721,24.721,0,0,0-1.893-5.675s8.226-.583,17.674-9.161,2.77-18.916,2.77-18.916l-.439,2.4a13.441,13.441,0,0,0-2.4-5.234A34.433,34.433,0,0,0,331.461,141c-.516,4.082-11.811,12.944-13.308,12.363,0,0-.3-4.8-.726-3.927-2.529,5.06-18.619,9.217-14.911,22.337a6.616,6.616,0,0,0-5.039,4.928c-.88,4.144,4.214,11.743,8.028,14.988s6.676,2.563,6.676,2.563Z" transform="translate(-98.664 485.84)"/><path class="k" d="M303.087,159.428c2.674-1.606,6.324-.427,8.17,2.64s1.179,6.852-1.483,8.457-6.336.417-8.173-2.64-1.177-6.852,1.485-8.457Z" transform="translate(-94.176 510.823)"/><path class="h" d="M324.232,197.725c2.618-22.238-10.217-25.548-13.472-23.711s-33.487,59.915-22.139,64.568,48.413-16.155,48.413-16.155l-2.047-9.6-30.31,7.556Z" transform="translate(-114.595 531.805)"/><path class="k" d="M356.462,196.93c0-.012,2.905-3.585,6.215-3.64a2.807,2.807,0,0,0,.837-1.418c.427-2.541.383-5.94,1.748-6.039s1.232,5.61,1.232,5.61l-.219,2.177-.583,1.133,3.245-2.992s1.087-6.182,1.748-6.247,1.232-.439,1.34.4a64.087,64.087,0,0,1-.911,6.543s-1.926,2.772-1.529,2.476,4.332-2.871,4.672-3.211,2.167-5.082,2.859-5.082,1.42.077,1.278.947a40.037,40.037,0,0,1-2.013,5.244,11.374,11.374,0,0,1-2.97,3.267,26.491,26.491,0,0,0,4.455-.979c1.254-.528,5.07-2.078,5.8-2s1.186,1.365-.957,2.529-10.9,4.236-10.9,4.236l-11,2.517c-4.419,1.013-5.179-4.971-4.344-5.465Z" transform="translate(-15.722 548.437)"/><path class="m" d="M388.385,184.321h56.44a2.979,2.979,0,0,1,2.977,2.97h0a2.983,2.983,0,0,1-2.977,2.968h-56.44a2.976,2.976,0,0,1-2.97-2.968h0a2.972,2.972,0,0,1,2.97-2.97Z" transform="translate(-17.719 550.672)"/><path class="n" d="M310.355,189.115a2.65,2.65,0,0,1-3.659,1.156,2.891,2.891,0,0,1-1.114-3.818,31.5,31.5,0,0,1,11.3-12.367,29.634,29.634,0,0,1,32.5.6,31.688,31.688,0,0,1,11.337,13.782,2.872,2.872,0,0,1-1.373,3.725,2.67,2.67,0,0,1-3.577-1.422,26.062,26.062,0,0,0-9.331-11.351,24.5,24.5,0,0,0-26.772-.483,25.933,25.933,0,0,0-9.307,10.181Z" transform="translate(-83.7 538.495)"/></g></svg>