<svg xmlns="http://www.w3.org/2000/svg" width="22.5" height="18.274" viewBox="0 0 22.5 18.274"><defs><style>.a{fill:#252ce1;}</style></defs><path class="a" d="M20.187,8.78c.014.2.014.4.014.6A13.03,13.03,0,0,1,7.081,22.5,13.031,13.031,0,0,1,0,20.43a9.54,9.54,0,0,0,1.114.057,9.235,9.235,0,0,0,5.725-1.97,4.62,4.62,0,0,1-4.312-3.2,5.815,5.815,0,0,0,.871.071,4.877,4.877,0,0,0,1.214-.157,4.612,4.612,0,0,1-3.7-4.526V10.65A4.644,4.644,0,0,0,3,11.236,4.618,4.618,0,0,1,1.57,5.068a13.108,13.108,0,0,0,9.508,4.826,5.206,5.206,0,0,1-.114-1.056,4.616,4.616,0,0,1,7.981-3.155,9.079,9.079,0,0,0,2.927-1.114A4.6,4.6,0,0,1,19.845,7.11,9.244,9.244,0,0,0,22.5,6.4,9.913,9.913,0,0,1,20.187,8.78Z" transform="translate(0 -4.226)"/></svg>